<svg id="visual" viewBox="0 0 960 300" width="960" height="300" xmlns="http://www.w3.org/2000/svg" xmlns:xlink="http://www.w3.org/1999/xlink" version="1.1"><rect x="0" y="0" width="960" height="300" fill="#210f00"></rect><path d="M0 50L22.8 51.5C45.7 53 91.3 56 137 69.3C182.7 82.7 228.3 106.3 274 110.8C319.7 115.3 365.3 100.7 411.2 94.7C457 88.7 503 91.3 548.8 90C594.7 88.7 640.3 83.3 686 79.2C731.7 75 777.3 72 823 71.3C868.7 70.7 914.3 72.3 937.2 73.2L960 74L960 301L937.2 301C914.3 301 868.7 301 823 301C777.3 301 731.7 301 686 301C640.3 301 594.7 301 548.8 301C503 301 457 301 411.2 301C365.3 301 319.7 301 274 301C228.3 301 182.7 301 137 301C91.3 301 45.7 301 22.8 301L0 301Z" fill="#3d2f13"></path><path d="M0 130L22.8 135.2C45.7 140.3 91.3 150.7 137 144.7C182.7 138.7 228.3 116.3 274 105.7C319.7 95 365.3 96 411.2 101.8C457 107.7 503 118.3 548.8 123.2C594.7 128 640.3 127 686 126.5C731.7 126 777.3 126 823 124.7C868.7 123.3 914.3 120.7 937.2 119.3L960 118L960 301L937.2 301C914.3 301 868.7 301 823 301C777.3 301 731.7 301 686 301C640.3 301 594.7 301 548.8 301C503 301 457 301 411.2 301C365.3 301 319.7 301 274 301C228.3 301 182.7 301 137 301C91.3 301 45.7 301 22.8 301L0 301Z" fill="#58370a"></path><path d="M0 204L22.8 199.3C45.7 194.7 91.3 185.3 137 185.5C182.7 185.7 228.3 195.3 274 192.3C319.7 189.3 365.3 173.7 411.2 170.5C457 167.3 503 176.7 548.8 175.3C594.7 174 640.3 162 686 156.8C731.7 151.7 777.3 153.3 823 154.7C868.7 156 914.3 157 937.2 157.5L960 158L960 301L937.2 301C914.3 301 868.7 301 823 301C777.3 301 731.7 301 686 301C640.3 301 594.7 301 548.8 301C503 301 457 301 411.2 301C365.3 301 319.7 301 274 301C228.3 301 182.7 301 137 301C91.3 301 45.7 301 22.8 301L0 301Z" fill="#793a05"></path><path d="M0 216L22.8 213C45.7 210 91.3 204 137 205.2C182.7 206.3 228.3 214.7 274 214.8C319.7 215 365.3 207 411.2 206.3C457 205.7 503 212.3 548.8 218.2C594.7 224 640.3 229 686 229.3C731.7 229.7 777.3 225.3 823 223C868.7 220.7 914.3 220.3 937.2 220.2L960 220L960 301L937.2 301C914.3 301 868.7 301 823 301C777.3 301 731.7 301 686 301C640.3 301 594.7 301 548.8 301C503 301 457 301 411.2 301C365.3 301 319.7 301 274 301C228.3 301 182.7 301 137 301C91.3 301 45.7 301 22.8 301L0 301Z" fill="#9e360e"></path><path d="M0 233L22.8 237.2C45.7 241.3 91.3 249.7 137 250.3C182.7 251 228.3 244 274 244.3C319.7 244.7 365.3 252.3 411.2 255.3C457 258.3 503 256.7 548.8 254.5C594.7 252.3 640.3 249.7 686 252.5C731.7 255.3 777.3 263.7 823 266.8C868.7 270 914.3 268 937.2 267L960 266L960 301L937.2 301C914.3 301 868.7 301 823 301C777.3 301 731.7 301 686 301C640.3 301 594.7 301 548.8 301C503 301 457 301 411.2 301C365.3 301 319.7 301 274 301C228.3 301 182.7 301 137 301C91.3 301 45.7 301 22.8 301L0 301Z" fill="#c72424"></path></svg>