<svg id="visual" viewBox="0 0 960 200" width="960" height="200" xmlns="http://www.w3.org/2000/svg" xmlns:xlink="http://www.w3.org/1999/xlink" version="1.1"><rect x="0" y="0" width="960" height="200" fill="lightblue"></rect><path d="M0 38L17.8 37.7C35.7 37.3 71.3 36.7 106.8 41.5C142.3 46.3 177.7 56.7 213.2 57.5C248.7 58.3 284.3 49.7 320 44.3C355.7 39 391.3 37 426.8 43.5C462.3 50 497.7 65 533.2 67.3C568.7 69.7 604.3 59.3 640 53.8C675.7 48.3 711.3 47.7 746.8 45.3C782.3 43 817.7 39 853.2 43.3C888.7 47.7 924.3 60.3 942.2 66.7L960 73L960 201L942.2 201C924.3 201 888.7 201 853.2 201C817.7 201 782.3 201 746.8 201C711.3 201 675.7 201 640 201C604.3 201 568.7 201 533.2 201C497.7 201 462.3 201 426.8 201C391.3 201 355.7 201 320 201C284.3 201 248.7 201 213.2 201C177.7 201 142.3 201 106.8 201C71.3 201 35.7 201 17.8 201L0 201Z" fill="#4cc253"></path><path d="M0 81L17.8 85.5C35.7 90 71.3 99 106.8 96.3C142.3 93.7 177.7 79.3 213.2 79.8C248.7 80.3 284.3 95.7 320 102C355.7 108.3 391.3 105.7 426.8 98C462.3 90.3 497.7 77.7 533.2 73.2C568.7 68.7 604.3 72.3 640 80C675.7 87.7 711.3 99.3 746.8 100.7C782.3 102 817.7 93 853.2 94C888.7 95 924.3 106 942.2 111.5L960 117L960 201L942.2 201C924.3 201 888.7 201 853.2 201C817.7 201 782.3 201 746.8 201C711.3 201 675.7 201 640 201C604.3 201 568.7 201 533.2 201C497.7 201 462.3 201 426.8 201C391.3 201 355.7 201 320 201C284.3 201 248.7 201 213.2 201C177.7 201 142.3 201 106.8 201C71.3 201 35.7 201 17.8 201L0 201Z" fill="#49ab4f"></path><path d="M0 128L17.8 126.7C35.7 125.3 71.3 122.7 106.8 124.8C142.3 127 177.7 134 213.2 136.8C248.7 139.7 284.3 138.3 320 136.8C355.7 135.3 391.3 133.7 426.8 129.8C462.3 126 497.7 120 533.2 115.3C568.7 110.7 604.3 107.3 640 104.2C675.7 101 711.3 98 746.8 99C782.3 100 817.7 105 853.2 109.3C888.7 113.7 924.3 117.3 942.2 119.2L960 121L960 201L942.2 201C924.3 201 888.7 201 853.2 201C817.7 201 782.3 201 746.8 201C711.3 201 675.7 201 640 201C604.3 201 568.7 201 533.2 201C497.7 201 462.3 201 426.8 201C391.3 201 355.7 201 320 201C284.3 201 248.7 201 213.2 201C177.7 201 142.3 201 106.8 201C71.3 201 35.7 201 17.8 201L0 201Z" fill="#45954b"></path><path d="M0 151L17.8 152.3C35.7 153.7 71.3 156.3 106.8 152.3C142.3 148.3 177.7 137.7 213.2 132.8C248.7 128 284.3 129 320 130.7C355.7 132.3 391.3 134.7 426.8 139.7C462.3 144.7 497.7 152.3 533.2 154C568.7 155.7 604.3 151.3 640 144.8C675.7 138.3 711.3 129.7 746.8 126.5C782.3 123.3 817.7 125.7 853.2 126.7C888.7 127.7 924.3 127.3 942.2 127.2L960 127L960 201L942.2 201C924.3 201 888.7 201 853.2 201C817.7 201 782.3 201 746.8 201C711.3 201 675.7 201 640 201C604.3 201 568.7 201 533.2 201C497.7 201 462.3 201 426.8 201C391.3 201 355.7 201 320 201C284.3 201 248.7 201 213.2 201C177.7 201 142.3 201 106.8 201C71.3 201 35.7 201 17.8 201L0 201Z" fill="#417f46"></path><path d="M0 153L17.8 155.7C35.7 158.3 71.3 163.7 106.8 166.3C142.3 169 177.7 169 213.2 166.5C248.7 164 284.3 159 320 160.7C355.7 162.3 391.3 170.7 426.8 170.5C462.3 170.3 497.7 161.7 533.2 159.3C568.7 157 604.3 161 640 165.3C675.7 169.7 711.3 174.3 746.8 175C782.3 175.7 817.7 172.3 853.2 171.2C888.7 170 924.3 171 942.2 171.5L960 172L960 201L942.2 201C924.3 201 888.7 201 853.2 201C817.7 201 782.3 201 746.8 201C711.3 201 675.7 201 640 201C604.3 201 568.7 201 533.2 201C497.7 201 462.3 201 426.8 201C391.3 201 355.7 201 320 201C284.3 201 248.7 201 213.2 201C177.7 201 142.3 201 106.8 201C71.3 201 35.7 201 17.8 201L0 201Z" fill="#3d6a40"></path></svg>