<svg id="visual" viewBox="0 0 960 200" width="960" height="200" xmlns="http://www.w3.org/2000/svg" xmlns:xlink="http://www.w3.org/1999/xlink" version="1.1"><rect x="0" y="0" width="960" height="200" fill="#d08351"></rect><path d="M0 160L17.8 160.3C35.7 160.7 71.3 161.3 106.8 156.5C142.3 151.7 177.7 141.3 213.2 140.5C248.7 139.7 284.3 148.3 320 153.7C355.7 159 391.3 161 426.8 154.5C462.3 148 497.7 133 533.2 130.7C568.7 128.3 604.3 138.7 640 144.2C675.7 149.7 711.3 150.3 746.8 152.7C782.3 155 817.7 159 853.2 154.7C888.7 150.3 924.3 137.7 942.2 131.3L960 125L960 0L942.2 0C924.3 0 888.7 0 853.2 0C817.7 0 782.3 0 746.8 0C711.3 0 675.7 0 640 0C604.3 0 568.7 0 533.2 0C497.7 0 462.3 0 426.8 0C391.3 0 355.7 0 320 0C284.3 0 248.7 0 213.2 0C177.7 0 142.3 0 106.8 0C71.3 0 35.7 0 17.8 0L0 0Z" fill="#4cc253"></path><path d="M0 117L17.8 112.5C35.7 108 71.3 99 106.8 101.7C142.3 104.3 177.7 118.7 213.2 118.2C248.7 117.7 284.3 102.3 320 96C355.7 89.7 391.3 92.3 426.8 100C462.3 107.7 497.7 120.3 533.2 124.8C568.7 129.3 604.3 125.7 640 118C675.7 110.3 711.3 98.7 746.8 97.3C782.3 96 817.7 105 853.2 104C888.7 103 924.3 92 942.2 86.5L960 81L960 0L942.2 0C924.3 0 888.7 0 853.2 0C817.7 0 782.3 0 746.8 0C711.3 0 675.7 0 640 0C604.3 0 568.7 0 533.2 0C497.7 0 462.3 0 426.8 0C391.3 0 355.7 0 320 0C284.3 0 248.7 0 213.2 0C177.7 0 142.3 0 106.8 0C71.3 0 35.7 0 17.8 0L0 0Z" fill="#49ab4f"></path><path d="M0 70L17.8 71.3C35.7 72.7 71.3 75.3 106.8 73.2C142.3 71 177.7 64 213.2 61.2C248.7 58.3 284.3 59.7 320 61.2C355.7 62.7 391.3 64.3 426.8 68.2C462.3 72 497.7 78 533.2 82.7C568.7 87.3 604.3 90.7 640 93.8C675.7 97 711.3 100 746.8 99C782.3 98 817.7 93 853.2 88.7C888.7 84.3 924.3 80.7 942.2 78.8L960 77L960 0L942.2 0C924.3 0 888.7 0 853.2 0C817.7 0 782.3 0 746.8 0C711.3 0 675.7 0 640 0C604.3 0 568.7 0 533.2 0C497.7 0 462.3 0 426.8 0C391.3 0 355.7 0 320 0C284.3 0 248.7 0 213.2 0C177.7 0 142.3 0 106.8 0C71.3 0 35.7 0 17.8 0L0 0Z" fill="#45954b"></path><path d="M0 47L17.8 45.7C35.7 44.3 71.3 41.7 106.8 45.7C142.3 49.7 177.7 60.3 213.2 65.2C248.7 70 284.3 69 320 67.3C355.7 65.7 391.3 63.3 426.8 58.3C462.3 53.3 497.7 45.7 533.2 44C568.7 42.3 604.3 46.7 640 53.2C675.7 59.7 711.3 68.3 746.8 71.5C782.3 74.7 817.7 72.3 853.2 71.3C888.7 70.3 924.3 70.7 942.2 70.8L960 71L960 0L942.2 0C924.3 0 888.7 0 853.2 0C817.7 0 782.3 0 746.8 0C711.3 0 675.7 0 640 0C604.3 0 568.7 0 533.2 0C497.7 0 462.3 0 426.8 0C391.3 0 355.7 0 320 0C284.3 0 248.7 0 213.2 0C177.7 0 142.3 0 106.8 0C71.3 0 35.7 0 17.8 0L0 0Z" fill="#417f46"></path><path d="M0 45L17.8 42.3C35.7 39.7 71.3 34.3 106.8 31.7C142.3 29 177.7 29 213.2 31.5C248.7 34 284.3 39 320 37.3C355.7 35.7 391.3 27.3 426.8 27.5C462.3 27.7 497.7 36.3 533.2 38.7C568.7 41 604.3 37 640 32.7C675.7 28.3 711.3 23.7 746.8 23C782.3 22.3 817.7 25.7 853.2 26.8C888.7 28 924.3 27 942.2 26.5L960 26L960 0L942.2 0C924.3 0 888.7 0 853.2 0C817.7 0 782.3 0 746.8 0C711.3 0 675.7 0 640 0C604.3 0 568.7 0 533.2 0C497.7 0 462.3 0 426.8 0C391.3 0 355.7 0 320 0C284.3 0 248.7 0 213.2 0C177.7 0 142.3 0 106.8 0C71.3 0 35.7 0 17.8 0L0 0Z" fill="#3d6a40"></path></svg>